<?xml version="1.0" standalone="no"?>
<!DOCTYPE svg PUBLIC "-//W3C//DTD SVG 20010904//EN"
 "http://www.w3.org/TR/2001/REC-SVG-20010904/DTD/svg10.dtd">
<svg version="1.0" xmlns="http://www.w3.org/2000/svg"
 width="120.000000pt" height="120.000000pt" viewBox="0 0 120.000000 120.000000"
 preserveAspectRatio="xMidYMid meet">
<metadata>
Created by potrace 1.14, written by Peter Selinger 2001-2017
</metadata>
<g transform="translate(0.000000,120.000000) scale(0.100000,-0.100000)"
fill="#000000" stroke="none">
<path d="M394 1041 c-23 -10 -53 -32 -68 -47 -55 -60 -52 -171 6 -235 29 -32
120 -99 134 -99 8 0 98 -62 105 -73 13 -19 97 62 85 82 -3 5 -50 36 -103 69
-148 91 -173 118 -173 187 0 40 37 84 74 87 111 8 177 -42 229 -173 5 -12 7
-12 16 1 5 8 8 17 6 20 -2 3 -6 39 -9 80 -11 125 -16 138 -42 102 -12 -18 -21
-21 -52 -16 -20 3 -45 10 -55 16 -35 19 -110 18 -153 -1z"/>
<path d="M999 941 c-14 -14 -62 -57 -105 -96 -153 -135 -538 -529 -616 -631
-65 -85 502 464 631 611 24 28 62 69 85 92 43 46 48 66 5 24z"/>
<path d="M982 860 c-7 -11 -18 -20 -25 -20 -7 0 -18 -9 -25 -20 -11 -18 -9
-25 15 -50 15 -16 34 -48 44 -72 9 -23 22 -44 29 -46 10 -4 12 12 6 74 -3 44
-8 88 -11 99 -2 11 -4 28 -4 38 -1 23 -13 22 -29 -3z"/>
<path d="M716 591 l-39 -40 78 -48 c173 -108 200 -138 190 -212 -9 -74 -60
-113 -139 -106 -76 6 -139 57 -182 149 -21 44 -48 49 -40 9 2 -16 10 -67 16
-115 9 -65 15 -85 25 -82 7 3 16 12 19 20 7 18 43 18 97 -2 144 -52 300 23
313 151 7 62 -28 141 -77 177 -31 23 -214 138 -220 138 -2 0 -20 -18 -41 -39z"/>
<path d="M253 537 c3 -8 11 -57 17 -110 13 -97 23 -116 47 -78 8 12 19 17 35
14 14 -3 29 2 36 10 10 12 8 18 -11 33 -30 25 -87 108 -87 128 0 10 -9 16 -21
16 -14 0 -19 -5 -16 -13z"/>
</g>
</svg>
